PathFileType	4	(X/Y/Z)	C:/Users/opensim2020/Desktop/walking_exp_matlab/subject02_walking04_straight_01.trc	
DataRate	CameraRate	NumFrames	NumMarkers	Units	OrigDataRate	OrigDataStartFrame	OrigNumFrames	
100.00	100.00	4	42	mm	100.00	840	302	
Frame#	Time	LFHD			RFHD			LBHD			RBHD			C7			T10			CLAV			STRN			RBAK			LSHO			LUPA			LELB			LFRM			LWRA			LWRB			LFIN			RSHO			RUPA			RELB			RFRM			RWRA			RWRB			RFIN			LASI			RASI			LPSI			RPSI			LTHI			LKNE			LTIB			LANK			LHEE			LTOE			RTHI			RKNE			RTIB			RANK			RHEE			RTOE			*39			*40			*41			
		X1	Y1	Z1	X2	Y2	Z2	X3	Y3	Z3	X4	Y4	Z4	X5	Y5	Z5	X6	Y6	Z6	X7	Y7	Z7	X8	Y8	Z8	X9	Y9	Z9	X10	Y10	Z10	X11	Y11	Z11	X12	Y12	Z12	X13	Y13	Z13	X14	Y14	Z14	X15	Y15	Z15	X16	Y16	Z16	X17	Y17	Z17	X18	Y18	Z18	X19	Y19	Z19	X20	Y20	Z20	X21	Y21	Z21	X22	Y22	Z22	X23	Y23	Z23	X24	Y24	Z24	X25	Y25	Z25	X26	Y26	Z26	X27	Y27	Z27	X28	Y28	Z28	X29	Y29	Z29	X30	Y30	Z30	X31	Y31	Z31	X32	Y32	Z32	X33	Y33	Z33	X34	Y34	Z34	X35	Y35	Z35	X36	Y36	Z36	X37	Y37	Z37	X38	Y38	Z38	X39	Y39	Z39	X40	Y40	Z40	X41	Y41	Z41	X42	Y42	Z42	

114	1.130	-1086.71509	-676.87323	1757.32544	-943.45917	-678.67920	1738.47742	-1100.23145	-781.20844	1648.30908	-959.11639	-794.82172	1625.26624	-1027.94824	-818.47827	1525.18066	-1022.98474	-881.54333	1254.11157	-1038.79370	-678.46692	1454.53552	-1029.01465	-632.83112	1280.65503	-961.27521	-879.49121	1356.51013	-1209.94812	-738.58215	1495.47522	-1298.85071	-736.49408	1294.18628	-1315.74243	-726.84515	1153.98218	-1326.55017	-696.82843	1024.93262	-1287.79663	-627.19238	910.49347	-1325.73462	-668.64063	905.33063	-1328.62634	-637.37415	847.59613	-842.07275	-732.52209	1492.77966	-755.39423	-776.68793	1308.42236	-742.93896	-778.27740	1160.36267	-726.58771	-756.65540	1040.29236	-749.61395	-715.11224	912.19934	-717.44617	-762.48218	909.96710	-716.86267	-727.81970	846.32239	-1157.41345	-650.48291	991.04376	-900.82263	-655.48383	972.39545	-1079.87122	-861.99792	1034.08325	-965.38751	-868.07794	1028.74341	-1209.05627	-707.17877	679.24323	-1176.08386	-734.61908	476.61520	-1174.15027	-787.09204	287.67432	-1133.20020	-780.94336	65.59616	-1082.58655	-817.61700	37.55141	-1142.80444	-623.99469	31.87330	-822.46790	-691.23810	669.15631	-837.44403	-664.05499	473.94785	-840.41736	-802.48224	356.01215	-877.26868	-930.02667	213.76065	-941.78955	-978.45361	184.56831	-836.54364	-861.35504	73.24998	-1001.87024	-797.94666	1790.41504	-3360.12842	2845.13086	1033.78723			 
115	1.140	-1087.72021	-667.73645	1757.47900	-944.69464	-669.66711	1738.37732	-1101.56750	-772.14777	1648.65015	-960.55377	-786.13416	1625.33533	-1029.48572	-809.68903	1525.57776	-1024.77136	-873.22986	1254.69360	-1040.11414	-669.81476	1454.64771	-1030.68848	-624.50739	1280.68884	-963.14032	-870.97980	1356.69763	-1211.21301	-729.31879	1496.11255	-1300.50061	-724.95581	1295.23120	-1317.76611	-713.31238	1155.22046	-1328.20056	-680.57373	1026.74390	-1288.70105	-608.42542	914.21051	-1327.08801	-649.94159	907.68292	-1329.69641	-617.27649	850.75677	-843.51416	-724.05273	1493.13391	-756.76147	-769.34491	1308.89087	-744.24475	-771.46826	1160.66699	-727.96875	-750.42670	1040.66394	-751.18213	-709.39130	912.40094	-718.95197	-756.70496	910.30499	-718.36749	-721.98987	846.70569	-1159.54639	-643.13062	991.40710	-903.02576	-646.66766	973.89978	-1080.72241	-854.55090	1034.15979	-965.90887	-859.68127	1029.27124	-1209.08569	-702.60529	678.83362	-1176.21301	-731.04968	476.28979	-1174.00220	-784.99438	287.66946	-1132.96838	-780.71283	65.87631	-1082.45276	-817.62494	37.84642	-1142.90491	-623.73065	31.69794	-823.87103	-677.48456	671.09833	-839.92139	-645.78436	476.10104	-842.34454	-781.52759	354.73236	-878.40802	-904.94171	208.45175	-942.42419	-953.33856	177.30722	-836.92480	-830.56433	71.63808	-1003.04279	-788.87134	1790.65552	-3360.11011	2845.10742	1033.85547			 
116	1.150	-1088.66858	-658.46063	1757.50415	-945.77917	-660.83716	1738.49829	-1103.07434	-763.25366	1649.11060	-961.78760	-776.89557	1625.73962	-1030.86511	-800.87134	1525.91577	-1026.34009	-864.89191	1255.07874	-1041.37964	-661.13525	1454.75366	-1032.31421	-616.18787	1280.68542	-964.73975	-861.97955	1357.02539	-1212.41357	-720.05255	1496.82434	-1302.08691	-713.45386	1296.35315	-1320.01514	-699.54883	1156.45142	-1330.03931	-664.38043	1028.58838	-1288.90234	-590.87463	917.46985	-1328.38708	-631.26746	910.23792	-1330.58960	-597.35773	853.96631	-844.88574	-715.73779	1493.00964	-758.25110	-761.90735	1309.22339	-745.39301	-764.88934	1161.06213	-729.28375	-744.28729	1040.94202	-752.53540	-703.38220	912.68799	-720.30603	-750.88306	910.53864	-719.71820	-716.64105	846.99884	-1161.37402	-636.16089	991.43750	-905.25073	-637.82684	975.27832	-1081.03381	-846.93317	1034.11218	-966.15796	-851.27313	1029.84290	-1209.24451	-697.89734	678.20868	-1176.20605	-727.26715	475.92120	-1173.87207	-782.65509	287.79895	-1132.71558	-780.44324	66.03352	-1082.22229	-817.48035	38.12193	-1143.01001	-623.50055	31.45928	-825.17316	-663.23633	672.87091	-842.26465	-628.90015	478.66196	-844.09393	-760.48260	353.03366	-879.32507	-879.30847	202.63692	-942.88922	-927.37952	169.08485	-837.65356	-799.10974	69.58187	-1004.08020	-779.66321	1790.86975	-3356.98804	2845.79614	1033.81873			 
117	1.160	-1089.55579	-649.12933	1757.67944	-946.25562	-651.79364	1738.35217	-1103.85254	-754.01941	1649.27539	-962.78839	-768.05914	1626.12231	-1032.07922	-792.11505	1526.16602	-1027.63928	-856.46582	1255.42285	-1042.54675	-652.57813	1454.81799	-1033.83435	-607.88141	1280.61108	-966.23926	-854.03363	1357.55225	-1213.44531	-710.95154	1497.44482	-1303.56580	-701.99249	1297.43506	-1321.92236	-685.97217	1157.70154	-1331.49329	-648.14319	1030.43530	-1289.66052	-572.91699	920.86816	-1329.48730	-612.87659	912.77557	-1331.41431	-577.71802	857.29047	-846.16840	-707.28503	1492.82983	-759.62054	-753.93030	1309.39917	-746.55432	-758.40289	1161.30750	-730.55548	-737.98987	1041.02258	-753.71527	-697.44757	912.56561	-721.66473	-744.75903	910.60962	-720.92242	-710.46466	847.17157	-1163.16919	-629.22223	991.33844	-907.51538	-628.90845	976.50470	-1081.32361	-839.25916	1033.99121	-966.20068	-842.79590	1030.39160	-1209.51404	-692.84845	677.54926	-1176.20105	-723.36682	475.53293	-1173.81018	-780.28534	287.90805	-1132.45630	-780.20245	66.01610	-1081.97791	-817.33276	38.35782	-1143.07007	-623.25958	31.30235	-826.40259	-649.47833	674.68451	-844.72406	-610.74036	480.55795	-845.60022	-739.09241	350.79819	-880.08044	-852.95142	196.15617	-943.16577	-900.13495	160.45329	-838.38733	-767.13422	67.21619	-1004.99670	-770.36743	1790.97534	-3357.09375	2845.78784	1033.70374			 
